<svg width="11.563354" height="13.370239" viewBox="0 0 11.5634 13.3702" fill="none" xmlns="http://www.w3.org/2000/svg" xmlns:xlink="http://www.w3.org/1999/xlink">
	<desc>
			Created with Pixso.
	</desc>
	<rect x="1.000000" y="5.783691" rx="1.000000" width="9.563358" height="6.586555" stroke="#9F9DF3" stroke-width="2.000000" stroke-linejoin="round" stroke-linecap="round"/>
	<path d="M6.82959 8.56146C6.82959 8.00919 6.38184 7.56146 5.82959 7.56146C5.27734 7.56146 4.82959 8.00919 4.82959 8.56146L6.82959 8.56146ZM4.82959 9.57111L4.82959 8.56146L6.82959 8.56146L6.82959 9.57111L4.82959 9.57111ZM4.82959 9.57111C4.82959 10.1234 5.27734 10.5711 5.82959 10.5711C6.38184 10.5711 6.82959 10.1234 6.82959 9.57111L4.82959 9.57111Z" fill-rule="evenodd" fill="#9F9DF3" fill-opacity="1.000000"/>
	<path d="M5.44983 2C4.89758 2.00003 4.44995 2.44774 4.44995 3L2.44995 3C2.44995 1.34317 3.79309 3.05176e-05 5.44983 0L5.44983 2ZM5.44995 2L6.88269 2L6.88269 0L5.44995 0L5.44995 2ZM2.44995 3L2.44995 5.37511C2.44995 5.9274 2.89771 6.37511 3.44995 6.37511C4.0022 6.37511 4.44995 5.9274 4.44995 5.37511L4.44995 3L2.44995 3ZM6.88306 2C7.4353 2 7.88306 2.44771 7.88306 2.99998L9.88306 2.99998C9.88306 1.34314 8.53992 0 6.88306 0L6.88306 2ZM7.88306 3.11545L7.88306 3L9.88306 3L9.88306 3.11545L7.88306 3.11545ZM7.88306 3.11545C7.88306 3.66772 8.33081 4.11545 8.88306 4.11545C9.4353 4.11545 9.88306 3.66772 9.88306 3.11545L7.88306 3.11545Z" fill-rule="evenodd" fill="#9F9DF3" fill-opacity="1.000000"/>
	<defs/>
</svg>
