<svg xmlns="http://www.w3.org/2000/svg" fill="none" viewBox="0 0 1024 1024" height="1024" width="1024">
<g clip-path="url(#clip0_1518_111578)">
<ellipse fill="url(#paint0_linear_1518_111578)" ry="127.5" rx="467" cy="762.5" cx="506"></ellipse>
<path fill="url(#paint1_linear_1518_111578)" d="M230.457 615.502C230.457 615.502 230.233 614.922 229.928 615.542C227.184 621.122 202.334 681.566 200.362 728.218C200.362 728.218 196.215 755.02 230.965 754.665C259.973 754.37 259.2 729.662 259.099 721.337C258.702 687.573 230.457 615.502 230.457 615.502Z"></path>
<path fill="url(#paint2_linear_1518_111578)" d="M229.664 784.343C229.105 784.343 228.647 783.886 228.647 783.327V631.754C228.647 631.195 229.105 630.737 229.664 630.737C230.223 630.737 230.68 631.195 230.68 631.754V783.327C230.68 783.896 230.223 784.343 229.664 784.343Z"></path>
<path fill="url(#paint3_linear_1518_111578)" d="M869.35 810.661C876.541 808.4 883.517 805.446 889.874 797.176C891.178 795.482 892.404 793.311 891.689 791.283C891.151 789.757 889.594 788.778 888.013 788.529C887.424 788.442 886.827 788.426 886.234 788.48H886.228C885.316 788.574 884.415 788.754 883.536 789.015L883.285 789.089C879.09 790.299 875.093 792.13 871.425 794.524C871.093 794.738 870.698 794.833 870.306 794.792C869.914 794.75 869.548 794.576 869.266 794.296C868.984 794.017 868.804 793.649 868.754 793.252C868.704 792.855 868.789 792.453 868.993 792.111C869.367 791.491 869.803 790.911 870.292 790.38C871.015 789.613 871.807 788.916 872.657 788.299C873.788 787.462 874.994 786.715 876.174 785.951C880.562 783.116 884.719 779.929 888.605 776.42C891.378 773.913 894.091 771.131 895.409 767.607C896.015 765.986 896.291 764.117 895.568 762.547C894.376 759.968 890.999 759.245 888.237 759.78C883.398 760.721 879.532 764.32 876.104 767.908C873.261 770.889 870.075 774.189 865.99 774.372C865.294 774.439 864.594 774.296 863.977 773.963C862.812 773.247 862.512 771.588 862.927 770.271C863.343 768.953 864.304 767.901 865.231 766.89C870.623 761.021 875.928 754.916 879.429 747.725C882.93 740.534 884.481 732.044 882.048 724.409C881.335 722.177 880.263 720.005 878.591 718.383C876.919 716.762 874.575 715.745 872.28 716.056C869.153 716.473 866.798 719.15 865.213 721.915C859.768 731.401 860.101 743.025 858.567 753.891C858.138 756.933 857.514 760.053 855.728 762.557C855.563 762.798 855.35 763 855.101 763.15C853.632 764.013 852.313 762.272 851.761 760.795C849.583 754.95 849.038 748.265 845.139 743.427C843.65 741.585 841.544 740.046 839.197 740.061C836.331 740.081 833.877 742.51 833.04 745.292C832.204 748.074 832.705 751.096 833.601 753.858C835.264 758.98 838.245 763.582 841.759 767.627C843.61 769.763 845.705 771.92 846.261 774.706C846.431 775.653 846.36 776.628 846.054 777.539C845.748 778.45 845.218 779.267 844.513 779.912C844.184 780.202 843.801 780.423 843.386 780.561C842.971 780.699 842.533 780.75 842.098 780.713C841.157 780.626 840.306 780.139 839.484 779.666C839.139 779.467 838.794 779.265 838.447 779.067C837.077 778.276 835.707 777.483 834.336 776.69C830.851 774.674 826.646 772.614 823.018 774.35C821.167 775.238 819.954 776.983 819.383 778.986C818.872 780.804 818.872 782.73 819.383 784.548C820.464 788.328 827.276 798.848 830.086 801.561C833.368 804.729 844.748 818.398 869.35 810.661Z"></path>
<path fill="url(#paint4_linear_1518_111578)" d="M685.704 427.334C679.478 366.355 628.146 319.983 566.887 320C532.415 320 503.459 332.55 481.665 355.892C490.93 353.588 498.58 353.035 508.564 353.035C570.411 353.035 621.275 401.438 627.353 461.733C688.477 463.957 737.789 514.653 737.789 576.334C737.789 606.015 729.089 634.517 710.435 654.934C760.945 642.99 796.107 595.994 796.107 541.935C796.107 480.263 746.795 429.557 685.705 427.334L685.704 427.334Z"></path>
<path fill="url(#paint5_linear_1518_111578)" d="M611.868 471.73C605.69 410.744 554.387 364.333 493.127 364.31C431.866 364.287 380.528 410.66 374.305 471.642H370.619C361.787 471.641 352.984 472.667 344.389 474.699C293.886 486.639 256 532.272 256 586.317C256 649.395 307.58 701 370.619 701H607.705C670.922 700.805 722.117 649.572 722.304 586.317C722.304 524.651 672.993 473.952 611.868 471.73H611.868Z"></path>
<path fill="url(#paint6_linear_1518_111578)" d="M525.482 532.742C523.661 531.886 522.83 530.736 522.991 529.291C523.152 527.846 523.768 526.696 524.839 525.839C525.161 525.625 526.205 524.796 527.973 523.351C529.741 521.906 531.911 520.167 534.482 518.134C529.982 512.997 524.625 508.957 518.411 506.013C512.196 503.07 505.446 501.599 498.161 501.599C491.411 501.599 485.089 502.856 479.196 505.371C473.304 507.886 468.161 511.338 463.768 515.726C459.375 520.114 455.92 525.251 453.402 531.137C450.884 537.023 449.625 543.338 449.625 550.08C449.625 556.716 450.884 562.977 453.402 568.863C455.92 574.749 459.375 579.886 463.768 584.274C468.161 588.662 473.304 592.114 479.196 594.629C485.089 597.144 491.411 598.401 498.161 598.401C503.732 598.401 509.009 597.518 513.991 595.753C518.973 593.987 523.527 591.498 527.652 588.288C531.777 585.077 535.313 581.304 538.259 576.97C541.205 572.635 543.375 567.9 544.768 562.763C545.518 560.301 546.911 558.268 548.946 556.662C550.982 555.057 553.393 554.254 556.179 554.254C559.5 554.254 562.312 555.431 564.616 557.786C566.92 560.14 568.071 562.923 568.071 566.134C568.071 567.632 567.804 569.077 567.268 570.468C565.018 577.96 561.696 584.863 557.304 591.177C552.911 597.492 547.687 602.923 541.634 607.472C535.58 612.02 528.857 615.579 521.464 618.147C514.071 620.716 506.304 622 498.161 622C488.196 622 478.821 620.127 470.036 616.381C461.25 612.635 453.616 607.498 447.134 600.97C440.652 594.441 435.509 586.816 431.705 578.094C427.902 569.371 426 560.033 426 550.08C426 540.127 427.902 530.763 431.705 521.987C435.509 513.211 440.652 505.585 447.134 499.11C453.616 492.635 461.25 487.498 470.036 483.699C478.821 479.9 488.196 478 498.161 478C509.196 478 519.429 480.274 528.857 484.823C538.286 489.371 546.321 495.552 552.964 503.365C555.429 501.545 557.491 499.967 559.152 498.629C560.813 497.291 561.857 496.462 562.286 496.14C562.929 495.605 563.625 495.204 564.375 494.936C565.125 494.669 565.821 494.669 566.464 494.936C567.107 495.204 567.67 495.766 568.152 496.622C568.634 497.478 568.982 498.763 569.196 500.475C569.304 501.438 569.411 503.07 569.518 505.371C569.625 507.672 569.732 510.348 569.839 513.398C569.946 516.448 570 519.605 570 522.87C570 526.134 569.946 529.211 569.839 532.1C569.732 535.739 568.875 538.361 567.268 539.967C566.411 540.823 565.125 541.304 563.411 541.411C561.696 541.518 559.875 541.358 557.946 540.93C555.054 540.288 551.866 539.592 548.384 538.843C544.902 538.094 541.58 537.318 538.42 536.515C535.259 535.712 532.473 534.963 530.063 534.268C527.652 533.572 526.125 533.064 525.482 532.742V532.742Z"></path>
<ellipse fill-opacity="0.15" fill="#7D7D7D" ry="15.5" rx="56.5" cy="757.5" cx="699.5"></ellipse>
<path fill="url(#paint7_linear_1518_111578)" d="M710.139 608.8H684.864V634.075H710.139V608.8Z"></path>
<path fill="#FEE0BC" d="M724.421 602.119C726.577 602.99 729.504 600.777 730.959 597.176C732.414 593.574 731.846 589.949 729.69 589.077C727.533 588.206 724.606 590.419 723.151 594.021C721.696 597.622 722.264 601.247 724.421 602.119Z"></path>
<path fill="#FEE0BC" d="M670.873 602.077C668.732 602.985 665.767 600.824 664.249 597.249C662.731 593.673 663.237 590.039 665.378 589.13C667.518 588.221 670.484 590.383 672.002 593.958C673.519 597.533 673.014 601.168 670.873 602.077Z"></path>
<path fill="url(#paint8_linear_1518_111578)" d="M698.6 619.056C714.076 619.056 726.622 606.592 726.622 591.217C726.622 575.842 714.076 563.378 698.6 563.378C683.124 563.378 670.578 575.842 670.578 591.217C670.578 606.592 683.124 619.056 698.6 619.056Z"></path>
<path fill="url(#paint9_linear_1518_111578)" d="M706.453 546.783C707.664 545.399 708.364 543.764 708.364 542.012C708.364 537.035 702.715 533 695.747 533C688.779 533 683.131 537.035 683.131 542.012C683.131 544.05 684.077 545.929 685.674 547.439C661.945 554.481 658.268 582.971 670.121 593.342C675.209 578.076 721.006 578.076 726.095 593.342C735.271 581.108 732.038 552.33 706.453 546.783Z" clip-rule="evenodd" fill-rule="evenodd"></path>
<path fill="url(#paint10_linear_1518_111578)" d="M708.49 624.884C709.05 624.359 709.608 623.777 710.164 623.136L710.175 623.14C710.385 623.142 710.64 623.183 711.127 623.531C713.594 624.623 715.873 626.246 717.958 628.216C741.436 638.998 770.135 670.637 771.684 678.665C773.487 688.003 769.836 692.994 766.139 694.785C764.288 695.682 751.318 700.17 737.202 703.979C738.831 723.36 740.719 742.096 742.607 746.86C743.866 750.037 734.179 751.25 720.564 751.405C693.083 754.082 646.371 753.479 648.992 746.864C650.874 742.114 652.756 723.476 654.382 704.157C642.048 701.286 631.039 697.888 629.296 697.016C625.692 695.214 618.482 688.004 620.285 677.19C621.675 668.848 656.52 633.753 679.972 623.765C680.452 623.536 680.94 623.327 681.435 623.14L681.454 623.162C681.491 623.147 681.528 623.133 681.565 623.119C681.568 623.133 681.571 623.148 681.573 623.163C683.418 621.823 684.636 621.316 684.931 621.316C687.835 625.086 693.95 630.071 700.78 628.958C703.883 628.069 706.592 626.535 708.49 624.884ZM656.655 675.569C656.873 672.778 657.081 670.161 657.276 667.783C654.93 669.693 652.236 671.639 649.123 673.585C651.488 673.923 654.022 674.62 656.655 675.569ZM735.043 676.828C734.852 674.383 734.669 672.061 734.496 669.902C736.721 671.611 739.241 673.347 742.107 675.083C739.88 675.391 737.506 676 735.043 676.828Z" clip-rule="evenodd" fill-rule="evenodd"></path>
<path fill="#5B7EFB" d="M713.436 624.654C713.436 624.654 711.645 622.8 709.854 622.8C700.207 632.788 689.282 625.847 684.783 620.947C684.614 620.755 682.992 620.945 681.201 622.8C696.96 637.633 709.257 630.216 713.436 624.654Z"></path>
<path fill="#FEE4C3" d="M656.332 765.505L653.538 753.346L639.4 756.179L641.525 766.783L656.332 765.505Z"></path>
<path fill="#4F538F" d="M643.766 754.842C640.964 759.221 642.757 765.077 644.003 767.457C640.467 771.129 625.692 774.701 625.692 765.511C625.691 756.493 634.722 753.209 643.766 754.842Z"></path>
<path fill="#FEE4C3" d="M737.235 765.505L740.029 753.346L754.167 756.179L752.042 766.783L737.235 765.505Z"></path>
<path fill="#4F538F" d="M749.8 754.842C752.602 759.221 750.81 765.077 749.563 767.457C753.099 771.129 767.874 774.701 767.875 765.511C767.875 756.493 758.845 753.209 749.8 754.842Z"></path>
<path fill="#D1E2FF" d="M748.625 714.89C748.625 714.89 768.292 711.24 774.546 725.387C779.113 741.93 762.505 746.086 762.505 746.086L749.512 748.634L743.854 767.774L697.904 758.755L651.918 767.774L646.252 748.618L633.397 746.096C633.397 746.096 615 739.158 621.37 725.406C629.428 708.009 647.262 714.913 647.262 714.913L697.882 729.27L748.625 714.89Z"></path>
<path fill="url(#paint11_linear_1518_111578)" d="M652.263 656.686C652.263 656.133 652.71 655.686 653.263 655.686H737.71C738.262 655.686 738.71 656.133 738.71 656.686V716.858H652.263V656.686Z"></path>
<rect fill="url(#paint12_linear_1518_111578)" rx="2" height="5.4945" width="94.1391" y="716.858" x="648.967"></rect>
<path fill="url(#paint13_linear_1518_111578)" d="M281.305 300.658C269.869 304.584 260.461 312.892 255.15 323.755C249.84 334.618 249.062 347.145 252.988 358.582C256.914 370.018 265.222 379.426 276.085 384.737C286.948 390.048 299.476 390.825 310.912 386.899C322.348 382.973 331.757 374.665 337.067 363.802C342.378 352.939 343.156 340.411 339.23 328.975C335.304 317.539 326.995 308.13 316.132 302.82C305.269 297.509 292.742 296.732 281.305 300.658V300.658ZM316.881 344.927L295.438 352.288C294.486 352.615 293.442 352.55 292.538 352.108C291.633 351.666 290.941 350.882 290.614 349.93L281.308 322.821C281.146 322.35 281.078 321.851 281.109 321.353C281.14 320.855 281.269 320.369 281.488 319.921C281.706 319.473 282.012 319.072 282.385 318.742C282.759 318.412 283.194 318.159 283.666 317.997C284.138 317.835 284.636 317.768 285.134 317.798C285.632 317.829 286.119 317.958 286.567 318.177C287.015 318.396 287.415 318.701 287.745 319.075C288.075 319.449 288.328 319.884 288.49 320.356L296.564 343.873L314.415 337.745C314.892 337.56 315.402 337.473 315.914 337.49C316.425 337.507 316.928 337.627 317.392 337.842C317.856 338.058 318.272 338.365 318.615 338.746C318.957 339.126 319.22 339.572 319.386 340.056C319.552 340.54 319.619 341.053 319.582 341.563C319.545 342.074 319.406 342.572 319.172 343.027C318.938 343.482 318.615 343.886 318.222 344.213C317.828 344.541 317.373 344.785 316.883 344.933L316.881 344.927Z"></path>
</g>
<defs>
<linearGradient gradientUnits="userSpaceOnUse" y2="890" x2="506" y1="635" x1="506" id="paint0_linear_1518_111578">
<stop stop-color="#BDDFFF"></stop>
<stop stop-opacity="0" stop-color="white" offset="0.95892"></stop>
</linearGradient>
<linearGradient gradientUnits="userSpaceOnUse" y2="615.257" x2="229.66" y1="754.678" x1="229.66" id="paint1_linear_1518_111578">
<stop stop-color="#5FB2FF"></stop>
<stop stop-color="#DFF0FF" offset="0.7893"></stop>
</linearGradient>
<linearGradient gradientUnits="userSpaceOnUse" y2="784.347" x2="229.661" y1="630.738" x1="229.661" id="paint2_linear_1518_111578">
<stop stop-color="#DFF0FF"></stop>
<stop stop-color="#A2D2FF" offset="0.818"></stop>
</linearGradient>
<linearGradient gradientUnits="userSpaceOnUse" y2="802.968" x2="847.534" y1="720.042" x1="883.842" id="paint3_linear_1518_111578">
<stop stop-color="#C4E3FF" offset="0.365159"></stop>
<stop stop-color="#5FB2FF" offset="1"></stop>
</linearGradient>
<linearGradient gradientUnits="userSpaceOnUse" y2="521.154" x2="507.665" y1="337.113" x1="708.241" id="paint4_linear_1518_111578">
<stop stop-color="#40A3FF"></stop>
<stop stop-color="#8FC8FF" offset="0.547454"></stop>
</linearGradient>
<linearGradient gradientUnits="userSpaceOnUse" y2="657.897" x2="354.128" y1="381.513" x1="592.002" id="paint5_linear_1518_111578">
<stop stop-color="#7ABFFF"></stop>
<stop stop-color="#ABD6FF" offset="0.766208"></stop>
</linearGradient>
<linearGradient gradientUnits="userSpaceOnUse" y2="610.862" x2="448.789" y1="491.967" x1="540.268" id="paint6_linear_1518_111578">
<stop stop-color="#DCEEFF"></stop>
<stop stop-color="white" offset="1"></stop>
</linearGradient>
<linearGradient gradientUnits="userSpaceOnUse" y2="634.075" x2="697.502" y1="612.066" x1="697.502" id="paint7_linear_1518_111578">
<stop stop-color="#FFCDA5"></stop>
<stop stop-color="#FFE8D1" offset="1"></stop>
</linearGradient>
<linearGradient gradientUnits="userSpaceOnUse" y2="619.056" x2="698.6" y1="563.378" x1="698.6" id="paint8_linear_1518_111578">
<stop stop-color="#FFF2DF"></stop>
<stop stop-color="#FEE0BC" offset="1"></stop>
</linearGradient>
<linearGradient gradientUnits="userSpaceOnUse" y2="595.038" x2="697.157" y1="542.012" x1="697.549" id="paint9_linear_1518_111578">
<stop stop-color="#483029"></stop>
<stop stop-color="#9F4326" offset="1"></stop>
</linearGradient>
<linearGradient gradientUnits="userSpaceOnUse" y2="621.035" x2="703.58" y1="743.843" x1="684.802" id="paint10_linear_1518_111578">
<stop stop-color="#6688FF" offset="0.0403741"></stop>
<stop stop-color="#F094FF" offset="1"></stop>
</linearGradient>
<linearGradient gradientUnits="userSpaceOnUse" y2="716.858" x2="695.486" y1="655.686" x1="695.486" id="paint11_linear_1518_111578">
<stop stop-color="#92AAFF"></stop>
<stop stop-color="#FCFDFF" offset="1"></stop>
</linearGradient>
<linearGradient gradientUnits="userSpaceOnUse" y2="722.353" x2="696.036" y1="716.858" x1="696.036" id="paint12_linear_1518_111578">
<stop stop-color="#BDCCFF"></stop>
<stop stop-color="#CCD7FF" offset="1"></stop>
</linearGradient>
<linearGradient gradientUnits="userSpaceOnUse" y2="382.527" x2="286.682" y1="298.534" x1="301.84" id="paint13_linear_1518_111578">
<stop stop-color="#6CB8FF"></stop>
<stop stop-color="#8FC8FF" offset="0.656831"></stop>
</linearGradient>
<clipPath id="clip0_1518_111578">
<rect fill="white" height="1024" width="1024"></rect>
</clipPath>
</defs>
</svg>
