<svg width="11.561523" height="13.165192" viewBox="0 0 11.5615 13.1652" fill="none" xmlns="http://www.w3.org/2000/svg" xmlns:xlink="http://www.w3.org/1999/xlink">
	<desc>
			Created with Pixso.
	</desc>
	<mask id="path-1-inside-1" fill="white">
		<path d="M5.78076 3L5.78076 1C7.69495 1.00002 9.24658 2.55171 9.24658 4.46582L7.24658 4.46582C7.24658 3.65628 6.59033 3.00002 5.78076 3ZM4.31494 4.46587L2.31494 4.46587C2.31494 6.37996 3.8667 7.93166 5.78076 7.93167L5.78076 5.93167C4.97119 5.93166 4.31494 5.27541 4.31494 4.46587ZM4.31494 4.46582C4.31494 3.65628 4.97119 3.00002 5.78076 3L5.78076 1L5.78076 1L5.78076 1C3.8667 1.00002 2.31494 2.55171 2.31494 4.46582L4.31494 4.46582ZM9.24658 4.46587L7.24658 4.46587C7.24658 5.27541 6.59033 5.93166 5.78076 5.93167L5.78076 7.93167C7.69495 7.93166 9.24658 6.37996 9.24658 4.46587Z" fill-rule="evenodd" fill-opacity="0.000000"/>
	</mask>
	<path d="M5.31494 4.46585Q5.31494 4.93166 5.78076 4.93167L5.78076 4.93167Q6.24658 4.93166 6.24658 4.46585L6.24658 4.46584Q6.24658 4.00002 5.78076 4L5.78076 4Q5.31494 4.00002 5.31494 4.46584L5.31494 4.46585ZM6.78076 6.80237Q7.81128 6.49631 8.11731 5.46587L8.11731 5.46587Q7.81128 6.49629 6.78076 6.80237ZM4.78076 2.12932Q3.75037 2.43538 3.44421 3.46582L3.44421 3.46582Q3.75037 2.43538 4.78076 2.12932L4.78076 2.12932ZM5.78076 0Q7.63062 1.52588e-05 8.9386 1.30801Q10.2466 2.61603 10.2466 4.46582L10.2466 4.46587Q10.2466 6.31566 8.9386 7.62366Q7.63062 8.93166 5.78076 8.93167L5.78076 8.93167Q3.93091 8.93166 2.62292 7.62366Q1.31494 6.31566 1.31494 4.46587Q1.31494 2.61603 2.62292 1.30801Q3.93091 1.52588e-05 5.78076 0Z" clip-rule="evenodd" fill-rule="evenodd" fill="#F7931A" fill-opacity="1.000000"/>
	<path d="M2.99976 10.7628C2.44763 10.7629 2 11.2106 2 11.7628L0 11.7628C0 10.106 1.34302 8.76289 2.99976 8.76279L2.99976 10.7628ZM3 10.7628L8.56152 10.7628L8.56152 8.76279L3 8.76279L3 10.7628ZM9.56152 11.7628C9.56152 11.2106 9.11389 10.7629 8.56177 10.7628L8.56177 8.76279C10.2185 8.76289 11.5615 10.106 11.5615 11.7628L11.5615 12.1652C11.5615 12.7175 11.1138 13.1652 10.5615 13.1652C10.0093 13.1652 9.56152 12.7175 9.56152 12.1652L9.56152 11.7628ZM2 12.1652C2 12.7175 1.55225 13.1652 1 13.1652C0.447754 13.1652 0 12.7175 0 12.1652L2 12.1652ZM0 11.7628L0 11.7628L2 11.7628L2 12.1652L0 12.1652L0 11.7628Z" fill-rule="evenodd" fill="#F7931A" fill-opacity="1.000000"/>
	<defs/>
</svg>
